<svg viewBox="0 0 1258 500" fill="none" xmlns="http://www.w3.org/2000/svg">
<path d="M224.848 19.6049H178.382L112.937 127.917L47.1649 19.6049H0.698883V248.663H45.856V100.43L110.319 206.451H115.555L180.018 100.102V248.663H224.848V19.6049Z" fill="#0F172A"/>
<path d="M265.565 248.663H307.777V85.05H265.565V248.663Z" fill="#0F172A"/>
<path d="M437.381 80.4688C415.457 80.4688 398.441 88.6495 388.625 103.375V85.05H346.413V248.663H388.625V160.312C388.625 131.843 404.004 119.736 424.619 119.736C443.599 119.736 457.015 131.189 457.015 153.44V248.663H499.227V148.205C499.227 104.684 472.067 80.4688 437.381 80.4688Z" fill="#0F172A"/>
<path d="M628.857 125.626V85.05H591.88V39.2384L549.668 52.0002V85.05H521.2V125.626H549.668V193.689C549.668 237.864 569.629 255.207 628.857 248.663V210.377C604.642 211.686 591.88 211.359 591.88 193.689V125.626H628.857Z" fill="#0F172A"/>
<path d="M267.546 33.6399C271.915 17.3342 298.933 2.13789 302.852 0C305.177 3.81099 320.978 30.4806 316.609 46.7863C313.498 58.3951 302.724 59.6338 285.374 65.2282C273.147 51.7084 264.435 45.2487 267.546 33.6399Z" fill="#10B981"/>
</svg>
