<svg viewBox="0 0 166 40" fill="none" xmlns="http://www.w3.org/2000/svg">
<path d="M104 39.9999L89 40L103 20L89 0H104L118 20L104 39.9999Z" fill="#10B981"/>
<path d="M119.181 15.9726C119.579 16.5413 120.421 16.5413 120.819 15.9726L130.899 1.57346C131.363 0.910681 130.888 0 130.079 0H119.083C117.777 0 116.554 0.636844 115.806 1.70615L112.901 5.85516C112.66 6.19948 112.66 6.65777 112.901 7.00209L119.181 15.9726Z" fill="white"/>
<path d="M119.181 24.0274C119.579 23.4586 120.421 23.4586 120.819 24.0274L130.899 38.4265C131.363 39.0893 130.888 40 130.079 40H119.083C117.777 40 116.554 39.3631 115.806 38.2938L112.901 34.1448C112.66 33.8005 112.66 33.3422 112.901 32.9979L119.181 24.0274Z" fill="white"/>
<path d="M39.152 37.0569C39.6281 38.7949 41.2077 40 43.0098 40H47.3377C49.1352 40 50.712 38.801 51.1923 37.0688L55.9435 19.9343C56.2144 18.9572 57.5998 18.9572 57.8708 19.9343L62.6219 37.0688C63.1022 38.801 64.679 40 66.4765 40H70.8181C72.6138 40 74.1894 38.8033 74.6713 37.0735L85 0H78.502C76.6672 0 75.0677 1.24827 74.6219 3.02806L68.3591 28.03L60.9227 0.73712C60.8042 0.301942 60.4089 0 59.9579 0H54.0372C53.5885 0 53.1947 0.298944 53.0741 0.731181L45.4552 28.03L39.364 3.05232C38.9271 1.26072 37.322 0 35.4779 0H29L39.152 37.0569Z" fill="white"/>
<path d="M4 0C1.79086 0 0 1.79086 0 4V39.9778H9.1944V13.2C9.1944 10.9909 10.9853 9.2 13.1944 9.2H25.7593C26.3971 9.2 26.8719 8.61087 26.7364 7.98757L25.1712 0.78757C25.0713 0.327882 24.6645 0 24.194 0H4Z" fill="white"/>
<path d="M136 32H166V40H136V32Z" fill="#10B981"/>
</svg>
