<svg xmlns="http://www.w3.org/2000/svg" viewBox="0 0 24 24"><path d="M14 2 H6 a2 2 0 0 0 -2 2 v16 a2 2 0 0 0 2 2 h12 a2 2 0 0 0 2 -2 V8 L14 2 Z" fill="currentColor" fill-opacity="0.16"/><path d="M14 2 H6 a2 2 0 0 0 -2 2 v16 a2 2 0 0 0 2 2 h12 a2 2 0 0 0 2 -2 V8 L14 2 Z M14 2 V8 H20" fill="none" stroke="currentColor" stroke-width="1.5" stroke-linejoin="round" stroke-linecap="round"/><line x1="7.5" y1="9.5" x2="11" y2="9.5" stroke="currentColor" stroke-width="1.6" stroke-linecap="round"/><line x1="7.5" y1="13" x2="16.5" y2="13" stroke="currentColor" stroke-width="1.6" stroke-linecap="round"/><line x1="7.5" y1="16.5" x2="16.5" y2="16.5" stroke="currentColor" stroke-width="1.6" stroke-linecap="round"/></svg>
